<?xml version="1.0" encoding="UTF-8"?>
<svg id="Layer_1" data-name="Layer 1" xmlns="http://www.w3.org/2000/svg" viewBox="0 0 104.05 104.05">
  <defs>
    <style>
      .cls-1 {
        fill: #c4c9c6;
        stroke-width: 0px;
      }
    </style>
  </defs>
  <path class="cls-1" d="M52.02,104.05C23.34,104.05,0,80.71,0,52.02S23.34,0,52.02,0s52.02,23.34,52.02,52.02-23.34,52.02-52.02,52.02ZM52.02,1.7C24.27,1.7,1.7,24.27,1.7,52.02s22.58,50.33,50.33,50.33,50.33-22.58,50.33-50.33S79.77,1.7,52.02,1.7Z"/>
  <g>
    <g>
      <path class="cls-1" d="M18.46,31.43c-.22,0-.43-.08-.6-.25-.33-.33-.33-.87,0-1.2l11.65-11.65c.33-.33.87-.33,1.2,0,.33.33.33.87,0,1.2l-11.65,11.65c-.17.17-.38.25-.6.25Z"/>
      <path class="cls-1" d="M30.11,29.9c-.47,0-.85-.38-.85-.85v-9.27h-9.27c-.47,0-.85-.38-.85-.85s.38-.85.85-.85h10.12c.47,0,.85.38.85.85v10.12c0,.47-.38.85-.85.85Z"/>
    </g>
    <g>
      <path class="cls-1" d="M73.94,85.96c-.22,0-.43-.08-.6-.25-.33-.33-.33-.87,0-1.2l11.65-11.65c.33-.33.87-.33,1.2,0,.33.33.33.87,0,1.2l-11.65,11.65c-.17.17-.38.25-.6.25Z"/>
      <path class="cls-1" d="M84.06,85.96h-10.12c-.47,0-.85-.38-.85-.85v-10.12c0-.47.38-.85.85-.85s.85.38.85.85v9.27h9.27c.47,0,.85.38.85.85s-.38.85-.85.85Z"/>
    </g>
  </g>
  <g>
    <path class="cls-1" d="M52.02,64.58c-.31-.01-7.81-.06-12.58-4.83-4.77-4.77-4.83-12.26-4.83-12.58,0-.23.09-.44.25-.6s.37-.25.6-.25h0c.29,0,7.14.06,11.92,4.22.2.17.31.43.29.7-.02.3-.03.55-.03.78,0,6.05,4.93,11.06,4.98,11.11.24.24.31.61.18.92-.13.32-.44.52-.78.52ZM36.36,48.07c.17,2.04.93,7.13,4.28,10.48,2.87,2.87,6.98,3.84,9.4,4.17-1.63-2.11-4.1-6.07-4.1-10.7,0-.15,0-.3,0-.46-3.31-2.69-7.73-3.34-9.6-3.49Z"/>
    <path class="cls-1" d="M52.02,64.58c-.34,0-.65-.21-.78-.52-.13-.32-.06-.68.18-.92.05-.05,4.98-5.08,4.98-11.11,0-.23,0-.48-.03-.78-.02-.26.09-.52.29-.7,4.78-4.16,11.63-4.22,11.92-4.22h0c.22,0,.44.09.6.25.16.16.25.38.25.6,0,.32-.06,7.81-4.83,12.58-4.77,4.77-12.26,4.83-12.58,4.83h0ZM58.09,51.56c0,.16,0,.31,0,.46,0,4.62-2.47,8.58-4.09,10.69,2.42-.33,6.53-1.3,9.39-4.16,3.37-3.37,4.12-8.44,4.29-10.48-1.87.16-6.29.81-9.6,3.49Z"/>
    <path class="cls-1" d="M52.02,64.58c-.23,0-.44-.09-.6-.25-.22-.22-5.48-5.57-5.48-12.31s5.25-12.09,5.48-12.31c.16-.16.38-.25.6-.25h0c.23,0,.44.09.6.25.22.22,5.48,5.57,5.48,12.31s-5.25,12.09-5.48,12.31c-.16.16-.38.25-.6.25ZM52.02,41.58c-1.32,1.57-4.38,5.7-4.38,10.44s3.06,8.87,4.38,10.44c1.33-1.57,4.38-5.7,4.38-10.44s-3.06-8.88-4.38-10.44Z"/>
  </g>
</svg>