<?xml version="1.0" encoding="utf-8"?>
<!-- Generator: Adobe Illustrator 28.3.0, SVG Export Plug-In . SVG Version: 6.00 Build 0)  -->
<svg version="1.1" id="Layer_1" xmlns="http://www.w3.org/2000/svg" xmlns:xlink="http://www.w3.org/1999/xlink" x="0px" y="0px"
	 viewBox="0 0 150 150" style="enable-background:new 0 0 150 150;" xml:space="preserve">
<style type="text/css">
	.st0{fill:none;stroke:#4C4540;stroke-width:2;stroke-linecap:round;stroke-linejoin:round;stroke-miterlimit:10;}
</style>
<g>
	<g>
		<g>
			<path class="st0" d="M101.6,70.9l-67.5,67.5l-9.8-9.8c-10.1-10.1-8.6-28,1.5-38.2l47.7-47.7L101.6,70.9z"/>
			<path class="st0" d="M101.6,70.9l-67.5,67.5l0,0c-9.7-9.7-4.9-23.7,4.7-33.3l48.5-48.5L101.6,70.9z"/>
		</g>
		<g>
			<path class="st0" d="M73.6,98.9l-66-66l9.8-9.8C27.5,13,43.9,13,54,23.1l47.7,47.7L73.6,98.9z"/>
			<path class="st0" d="M73.6,98.9l-66-66l0,0c9.7-9.7,25.9-4,35.5,5.7l44.8,46L73.6,98.9z"/>
		</g>
	</g>
	<g>
		<g>
			<path class="st0" d="M46.2,70.9l66,66l9.8-9.8c10.1-10.1,10.1-26.5,0-36.6L74.3,42.8L46.2,70.9z"/>
			<path class="st0" d="M46.2,70.9l66,66l0,0c9.7-9.7,6.5-22.1-3.2-31.8L60.5,56.6L46.2,70.9z"/>
		</g>
		<g>
			<path class="st0" d="M74.2,98.9l67.5-67.5l-9.8-9.8c-10.1-10.1-26.5-10.1-36.6,0L46.1,70.8L74.2,98.9z"/>
			<path class="st0" d="M74.2,98.9l67.5-67.5l0,0c-9.7-9.7-22.1-6.5-31.8,3.2l-50,50L74.2,98.9z"/>
		</g>
	</g>
	<path class="st0" d="M30.8,134.4"/>
	<polyline class="st0" points="7.7,32.9 60.5,56.6 87.3,56.6 141.7,31.4 	"/>
	<polyline class="st0" points="34.1,138.4 59.9,84.6 87.9,84.6 112.2,136.9 	"/>
	<polyline class="st0" points="60.5,56.6 59.9,84.6 31.3,84.6 	"/>
	<polyline class="st0" points="87.9,84.6 87.3,56.6 87.3,30.8 	"/>
</g>
</svg>
