<?xml version="1.0" encoding="UTF-8"?>
<svg id="Layer_1" data-name="Layer 1" xmlns="http://www.w3.org/2000/svg" viewBox="0 0 116.91 106.6">
  <defs>
    <style>
      .cls-1 {
        fill: #eae6e4;
        stroke-width: 0px;
      }
    </style>
  </defs>
  <path class="cls-1" d="M115.93,106.6H.98c-.54,0-.98-.44-.98-.98v-63.57c0-.32.15-.62.41-.8L57.88.18c.34-.24.8-.24,1.14,0l57.47,41.06c.26.18.41.48.41.8v63.57c0,.54-.44.98-.98.98ZM1.97,104.63h112.98v-62.08L58.46,2.19,1.97,42.55v62.08Z"/>
  <g>
    <g>
      <g>
        <path class="cls-1" d="M38.72,30.69c-.54,0-.98-.44-.98-.98v-1.56c0-.54.44-.98.98-.98s.98.44.98.98v1.56c0,.54-.44.98-.98.98Z"/>
        <path class="cls-1" d="M38.72,44.51c-.54,0-.98-.44-.98-.98v-1.56c0-.54.44-.98.98-.98s.98.44.98.98v1.56c0,.54-.44.98-.98.98Z"/>
        <path class="cls-1" d="M46.41,36.82h-1.56c-.54,0-.98-.44-.98-.98s.44-.98.98-.98h1.56c.54,0,.98.44.98.98s-.44.98-.98.98Z"/>
        <path class="cls-1" d="M32.59,36.82h-1.56c-.54,0-.98-.44-.98-.98s.44-.98.98-.98h1.56c.54,0,.98.44.98.98s-.44.98-.98.98Z"/>
      </g>
      <path class="cls-1" d="M40.9,36.82h-4.35c-.54,0-.98-.44-.98-.98s.44-.98.98-.98h4.35c.54,0,.98.44.98.98s-.44.98-.98.98Z"/>
      <path class="cls-1" d="M38.72,39c-.54,0-.98-.44-.98-.98v-4.35c0-.54.44-.98.98-.98s.98.44.98.98v4.35c0,.54-.44.98-.98.98Z"/>
    </g>
    <g>
      <g>
        <path class="cls-1" d="M58.46,43.99c-.54,0-.98-.44-.98-.98v-1.56c0-.54.44-.98.98-.98s.98.44.98.98v1.56c0,.54-.44.98-.98.98Z"/>
        <path class="cls-1" d="M58.46,57.8c-.54,0-.98-.44-.98-.98v-1.56c0-.54.44-.98.98-.98s.98.44.98.98v1.56c0,.54-.44.98-.98.98Z"/>
        <path class="cls-1" d="M66.14,50.12h-1.56c-.54,0-.98-.44-.98-.98s.44-.98.98-.98h1.56c.54,0,.98.44.98.98s-.44.98-.98.98Z"/>
        <path class="cls-1" d="M52.33,50.12h-1.56c-.54,0-.98-.44-.98-.98s.44-.98.98-.98h1.56c.54,0,.98.44.98.98s-.44.98-.98.98Z"/>
      </g>
      <path class="cls-1" d="M60.63,50.12h-4.35c-.54,0-.98-.44-.98-.98s.44-.98.98-.98h4.35c.54,0,.98.44.98.98s-.44.98-.98.98Z"/>
      <path class="cls-1" d="M58.46,52.29c-.54,0-.98-.44-.98-.98v-4.35c0-.54.44-.98.98-.98s.98.44.98.98v4.35c0,.54-.44.98-.98.98Z"/>
    </g>
    <g>
      <g>
        <path class="cls-1" d="M58.46,15.31c-.54,0-.98-.44-.98-.98v-1.56c0-.54.44-.98.98-.98s.98.44.98.98v1.56c0,.54-.44.98-.98.98Z"/>
        <path class="cls-1" d="M58.46,29.13c-.54,0-.98-.44-.98-.98v-1.56c0-.54.44-.98.98-.98s.98.44.98.98v1.56c0,.54-.44.98-.98.98Z"/>
        <path class="cls-1" d="M66.14,21.44h-1.56c-.54,0-.98-.44-.98-.98s.44-.98.98-.98h1.56c.54,0,.98.44.98.98s-.44.98-.98.98Z"/>
        <path class="cls-1" d="M52.33,21.44h-1.56c-.54,0-.98-.44-.98-.98s.44-.98.98-.98h1.56c.54,0,.98.44.98.98s-.44.98-.98.98Z"/>
      </g>
      <path class="cls-1" d="M60.63,21.44h-4.35c-.54,0-.98-.44-.98-.98s.44-.98.98-.98h4.35c.54,0,.98.44.98.98s-.44.98-.98.98Z"/>
      <path class="cls-1" d="M58.46,23.62c-.54,0-.98-.44-.98-.98v-4.35c0-.54.44-.98.98-.98s.98.44.98.98v4.35c0,.54-.44.98-.98.98Z"/>
    </g>
    <g>
      <g>
        <path class="cls-1" d="M78.19,30.69c-.54,0-.98-.44-.98-.98v-1.56c0-.54.44-.98.98-.98s.98.44.98.98v1.56c0,.54-.44.98-.98.98Z"/>
        <path class="cls-1" d="M78.19,44.51c-.54,0-.98-.44-.98-.98v-1.56c0-.54.44-.98.98-.98s.98.44.98.98v1.56c0,.54-.44.98-.98.98Z"/>
        <path class="cls-1" d="M85.88,36.82h-1.56c-.54,0-.98-.44-.98-.98s.44-.98.98-.98h1.56c.54,0,.98.44.98.98s-.44.98-.98.98Z"/>
        <path class="cls-1" d="M72.06,36.82h-1.56c-.54,0-.98-.44-.98-.98s.44-.98.98-.98h1.56c.54,0,.98.44.98.98s-.44.98-.98.98Z"/>
      </g>
      <path class="cls-1" d="M80.36,36.82h-4.35c-.54,0-.98-.44-.98-.98s.44-.98.98-.98h4.35c.54,0,.98.44.98.98s-.44.98-.98.98Z"/>
      <path class="cls-1" d="M78.19,39c-.54,0-.98-.44-.98-.98v-4.35c0-.54.44-.98.98-.98s.98.44.98.98v4.35c0,.54-.44.98-.98.98Z"/>
    </g>
    <g>
      <g>
        <path class="cls-1" d="M97.92,43.99c-.54,0-.98-.44-.98-.98v-1.56c0-.54.44-.98.98-.98s.98.44.98.98v1.56c0,.54-.44.98-.98.98Z"/>
        <path class="cls-1" d="M97.92,57.8c-.54,0-.98-.44-.98-.98v-1.56c0-.54.44-.98.98-.98s.98.44.98.98v1.56c0,.54-.44.98-.98.98Z"/>
        <path class="cls-1" d="M105.61,50.12h-1.56c-.54,0-.98-.44-.98-.98s.44-.98.98-.98h1.56c.54,0,.98.44.98.98s-.44.98-.98.98Z"/>
        <path class="cls-1" d="M91.79,50.12h-1.56c-.54,0-.98-.44-.98-.98s.44-.98.98-.98h1.56c.54,0,.98.44.98.98s-.44.98-.98.98Z"/>
      </g>
      <path class="cls-1" d="M100.1,50.12h-4.35c-.54,0-.98-.44-.98-.98s.44-.98.98-.98h4.35c.54,0,.98.44.98.98s-.44.98-.98.98Z"/>
      <path class="cls-1" d="M97.92,52.29c-.54,0-.98-.44-.98-.98v-4.35c0-.54.44-.98.98-.98s.98.44.98.98v4.35c0,.54-.44.98-.98.98Z"/>
    </g>
    <g>
      <g>
        <path class="cls-1" d="M18.99,43.99c-.54,0-.98-.44-.98-.98v-1.56c0-.54.44-.98.98-.98s.98.44.98.98v1.56c0,.54-.44.98-.98.98Z"/>
        <path class="cls-1" d="M18.99,57.8c-.54,0-.98-.44-.98-.98v-1.56c0-.54.44-.98.98-.98s.98.44.98.98v1.56c0,.54-.44.98-.98.98Z"/>
        <path class="cls-1" d="M26.68,50.12h-1.56c-.54,0-.98-.44-.98-.98s.44-.98.98-.98h1.56c.54,0,.98.44.98.98s-.44.98-.98.98Z"/>
        <path class="cls-1" d="M12.86,50.12h-1.56c-.54,0-.98-.44-.98-.98s.44-.98.98-.98h1.56c.54,0,.98.44.98.98s-.44.98-.98.98Z"/>
      </g>
      <path class="cls-1" d="M21.17,50.12h-4.35c-.54,0-.98-.44-.98-.98s.44-.98.98-.98h4.35c.54,0,.98.44.98.98s-.44.98-.98.98Z"/>
      <path class="cls-1" d="M18.99,52.29c-.54,0-.98-.44-.98-.98v-4.35c0-.54.44-.98.98-.98s.98.44.98.98v4.35c0,.54-.44.98-.98.98Z"/>
    </g>
  </g>
</svg>