<?xml version="1.0" encoding="utf-8"?>
<!-- Generator: Adobe Illustrator 28.3.0, SVG Export Plug-In . SVG Version: 6.00 Build 0)  -->
<svg version="1.1" xmlns="http://www.w3.org/2000/svg" xmlns:xlink="http://www.w3.org/1999/xlink" x="0px" y="0px"
	 viewBox="0 0 523.9 717.3" style="enable-background:new 0 0 523.9 717.3;" xml:space="preserve">
<style type="text/css">
	.st0{fill:none;stroke:#594A42;stroke-width:2;stroke-miterlimit:10;}
	.st1{fill:#594A42;}
</style>
<g id="Layer_1">
	<g>
		<g>
			<ellipse class="st0" cx="121.5" cy="204" rx="110.8" ry="139.7"/>
			<path class="st0" d="M185.6,90.4c-13.4-13-35.6-26.2-64.1-26.1C92.4,64.4,76.7,75.1,62,93.7c-16,20.2-14.5,53.2,5.2,72.9
				c32.1,32.1,90.5,11,131.8,51.3c16.6,16.2,19.1,71.9-6.9,93.8"/>
			<line class="st0" x1="121.5" y1="193" x2="121.5" y2="193"/>
			<line class="st0" x1="28.2" y1="128.7" x2="214.8" y2="128.7"/>
			<line class="st0" x1="51.1" y1="128.7" x2="51.1" y2="96.1"/>
			<circle class="st0" cx="51.1" cy="69.9" r="5.7"/>
		</g>
		<g>
			<g>
				<path class="st1" d="M55.5,25.4l1.1-1.1c1.8,1.9,4.4,3.2,7.3,3.2c3.8,0,6.2-1.9,6.2-4.7c0-3-2.1-3.9-4.6-5l-3.6-1.6
					c-2.2-0.9-5.2-2.4-5.2-5.9c0-3.4,3.1-5.8,7.2-5.8c3,0,5.4,1.3,7,2.8l-1,1.1c-1.5-1.5-3.5-2.4-6-2.4c-3.3,0-5.5,1.7-5.5,4.2
					c0,2.8,2.6,3.8,4.4,4.6l3.6,1.6c2.8,1.2,5.4,2.7,5.4,6.3c0,3.6-3.1,6.4-7.9,6.4C60.3,29,57.5,27.5,55.5,25.4z"/>
				<path class="st1" d="M80.5,19.9c0-5.8,3.8-9.1,8.4-9.1s8.4,3.3,8.4,9.1c0,5.7-3.8,9-8.4,9S80.5,25.7,80.5,19.9z M95.6,19.9
					c0-4.6-2.8-7.7-6.7-7.7c-3.9,0-6.7,3.1-6.7,7.7c0,4.5,2.8,7.6,6.7,7.6C92.8,27.6,95.6,24.5,95.6,19.9z"/>
				<path class="st1" d="M107.5,11.4l5.2-0.2h9.5v1.4h-14.7V11.4z M112.7,9.2c0-4.4,2.1-7,6.5-7c1.5,0,3.1,0.2,4.8,1.1l-0.5,1.2
					c-1.6-0.7-2.6-0.9-4.3-0.9c-3.6,0-5,2.2-5,5.4v19.5h-1.5V9.2z"/>
				<path class="st1" d="M140.8,12.7h-8.6v-1.4h10.2v17.3h-1.6V12.7z M139.5,5.3c0-1.1,0.7-1.7,1.7-1.7c0.9,0,1.7,0.7,1.7,1.7
					c0,1.1-0.7,1.7-1.7,1.7C140.2,7.1,139.5,6.4,139.5,5.3z"/>
				<path class="st1" d="M156.6,19.9c0-5.6,4.1-9.1,8.7-9.1c4.7,0,7.7,3,7.7,8c0,0.4,0,0.9-0.1,1.3h-15.5v-1.4h14.8l-0.7,0.6
					c0-4.9-2.5-7.2-6.3-7.2c-3.6,0-7,2.8-7,7.7c0,5,3.5,7.7,7.6,7.7c2.4,0,4.2-0.8,5.8-1.9l0.7,1.2c-1.6,1-3.5,2-6.6,2
					C160.8,29,156.6,25.6,156.6,19.9z"/>
			</g>
			<g>
				<path class="st1" d="M360.6,25.4l1.1-1.1c1.8,1.9,4.4,3.2,7.3,3.2c3.8,0,6.2-1.9,6.2-4.7c0-3-2.1-3.9-4.6-5l-3.6-1.6
					c-2.2-0.9-5.2-2.4-5.2-5.9c0-3.4,3.1-5.8,7.2-5.8c3,0,5.4,1.3,7,2.8l-1,1.1c-1.5-1.5-3.5-2.4-6-2.4c-3.3,0-5.5,1.7-5.5,4.2
					c0,2.8,2.6,3.8,4.4,4.6l3.6,1.6c2.8,1.2,5.3,2.7,5.3,6.3c0,3.6-3.1,6.4-7.9,6.4C365.4,29,362.6,27.5,360.6,25.4z"/>
				<path class="st1" d="M385.1,16.6c0-7.5,3.7-12.2,8.9-12.2s8.9,4.7,8.9,12.2c0,7.6-3.7,12.4-8.9,12.4S385.1,24.2,385.1,16.6z
					 M401.1,16.6c0-6.6-2.9-10.7-7.1-10.7s-7.1,4.1-7.1,10.7c0,6.6,2.9,10.9,7.1,10.9S401.1,23.2,401.1,16.6z"/>
				<path class="st1" d="M413.8,4.8h13.9v1.4h-12.2v9.4h10.3v1.4h-10.3v11.4h-1.7V4.8z"/>
				<path class="st1" d="M437.6,27.1h6.1V6.3h-6.1V4.8h13.9v1.4h-6.1v20.9h6.1v1.4h-13.9V27.1z"/>
				<path class="st1" d="M463.5,4.8h14v1.4h-12.4v9h10.4v1.4h-10.4v10.5h12.7v1.4h-14.4V4.8z"/>
			</g>
		</g>
		<g>
			<ellipse class="st0" cx="406.1" cy="556.8" rx="110.8" ry="139.7"/>
			<line class="st0" x1="406.1" y1="545.8" x2="406.1" y2="545.8"/>
			<line class="st0" x1="323.8" y1="463.4" x2="488.9" y2="463.4"/>
			<line class="st0" x1="323.8" y1="463.4" x2="468.2" y2="672.6"/>
			<line class="st0" x1="520.9" y1="417.1" x2="327.4" y2="696.5"/>
			<path class="st0" d="M406.2,582.8c1.7,0.8,56.7,9.9,80.9-5.3c19-11.9,31.6-28.9,27.1-51.5"/>
		</g>
		<g>
			<ellipse class="st0" cx="409.6" cy="204" rx="110.8" ry="139.7"/>
			<path class="st0" d="M473.7,90.4c-13.4-13-35.6-26.2-64.1-26.1c-29.1,0.1-55.7,13.3-70.4,31.8c-16,20.2-22.7,36.3-3,56
				c32.1,32.1,127.5,18.8,168.8,59.1c16.6,16.2,8,57.4-10.2,82"/>
			<line class="st0" x1="409.6" y1="193" x2="409.6" y2="193"/>
			<path class="st0" d="M502.9,128.7"/>
			<path class="st0" d="M316.3,128.7"/>
			<path class="st0" d="M339.2,96.1"/>
			<path class="st0" d="M339.2,128.7"/>
			<line class="st0" x1="419" y1="178.8" x2="419" y2="64.8"/>
			<line class="st0" x1="419" y1="121.8" x2="499.2" y2="121.8"/>
			<line class="st0" x1="419" y1="64.8" x2="518.6" y2="64.8"/>
			<line class="st0" x1="419" y1="178.8" x2="518.6" y2="178.8"/>
			<path class="st0" d="M323.3,293.3"/>
		</g>
		<g>
			<ellipse class="st0" cx="121.3" cy="562.4" rx="110.8" ry="139.7"/>
			<line class="st0" x1="121.3" y1="551.4" x2="121.3" y2="551.4"/>
			<line class="st0" x1="39" y1="469" x2="204.1" y2="469"/>
			<path class="st0" d="M183.4,512.2"/>
			<line class="st0" x1="236.1" y1="422.7" x2="42.6" y2="702.1"/>
			<line class="st0" x1="121.5" y1="469" x2="121.5" y2="702.1"/>
			<path class="st0" d="M149.4,628.9"/>
			<path class="st0" d="M121.5,685"/>
			<path class="st0" d="M121.5,589.4c-0.5-13.3,4.6-40.1,19.6-71.2c12.3-25.7,20.1-39.9,27.4-49.2"/>
		</g>
		<g>
			<g>
				<path class="st1" d="M75,391.2l1.2-1c1.4,2.3,3.4,3.4,5.4,3.4c4,0,5.6-2.1,5.6-6.4v-14.9H76.9V371h12v16.4
					c0,4.3-1.8,7.8-7.3,7.8C79,395.2,76.4,393.8,75,391.2z"/>
				<path class="st1" d="M99.3,386.1c0-5.8,3.8-9.1,8.4-9.1s8.4,3.3,8.4,9.1c0,5.7-3.8,9-8.4,9S99.3,391.8,99.3,386.1z M99.3,394.7
					l15.7-18.1l1,0.9l-15.7,18.1L99.3,394.7z M114.4,386.1c0-4.6-2.8-7.7-6.7-7.7c-3.9,0-6.7,3.2-6.7,7.7c0,4.5,2.8,7.7,6.7,7.7
					C111.6,393.8,114.4,390.7,114.4,386.1z"/>
				<path class="st1" d="M128,377.5h1.4l0.2,4.3h0.1c1.9-2.8,4.7-4.7,8.1-4.7c1.2,0,2.4,0.2,3.5,0.7l-0.4,1.4
					c-1.3-0.4-1.9-0.6-3.3-0.6c-2.9,0-5.5,1.5-7.9,5.4v10.8H128V377.5z"/>
				<path class="st1" d="M151.2,377.5h1.3l0.2,3.3h0.1c2-2.1,4-3.8,6.8-3.8c4.2,0,6.2,2.3,6.2,7v10.8h-1.6v-10.6
					c0-3.9-1.4-5.7-4.9-5.7c-2.5,0-4.1,1.3-6.6,3.9v12.4h-1.6V377.5z"/>
			</g>
			<g>
				<path class="st1" d="M361,390.8l1.2-1c1.4,2.3,3.5,3.4,5.4,3.4c4,0,5.6-2.1,5.6-6.4v-14.9h-10.3v-1.4h12v16.4
					c0,4.3-1.8,7.8-7.3,7.8C365,394.7,362.4,393.4,361,390.8z"/>
				<path class="st1" d="M401.3,369.7l1.1,0.8l-16.6,24.6l-1.1-0.8L401.3,369.7z M384.8,382.3c0-7.5,3.7-12.2,8.9-12.2
					c5.2,0,8.9,4.7,8.9,12.2c0,7.6-3.7,12.4-8.9,12.4C388.5,394.7,384.8,389.9,384.8,382.3z M400.8,382.3c0-6.6-2.9-10.7-7.1-10.7
					s-7.1,4.1-7.1,10.7c0,6.6,2.9,10.9,7.1,10.9S400.8,389,400.8,382.3z"/>
				<path class="st1" d="M412.4,370.6h6.8c4.7,0,7.8,1.7,7.8,6.3c0,4.3-3.1,6.6-7.8,6.6h-5.1v10.9h-1.7V370.6z M418.7,382
					c4.2,0,6.5-1.7,6.5-5.2c0-3.6-2.3-4.9-6.5-4.9h-4.7v10H418.7z M420.4,382.4l7,11.9h-1.9l-6.7-11.4L420.4,382.4z"/>
				<path class="st1" d="M436.8,370.6h1.8l9.2,16.8l2.5,4.7h0.1c-0.1-2.3-0.2-4.6-0.2-6.9v-14.6h1.6v23.7h-1.8l-9.2-16.8l-2.5-4.7
					h-0.1c0.1,2.3,0.2,4.5,0.2,6.8v14.7h-1.6V370.6z"/>
			</g>
		</g>
	</g>
</g>
<g id="Layer_2">
</g>
</svg>
